PathFileType	3	(X/Y/Z)	D:\Vicon Database\Healthy Subjects\S0040\Jan. 30, 2020\Force Plate Walk 2.trc
DataRate	CameraRate	NumFrames	NumMarkers	Units	OrigDataRate	OrigDataStartFrame	OrigNumFrames
100.0	100.0	4	53	mm	100.0	306	306	
Frame#	Time	right_foot_cluster2			right_foot_cluster3			sternum_cluster1			sternum_cluster2			sternum_cluster3			left_asis			right_asis			left_psis			right_psis			sacrum_cluster1			sacrum_cluster2			sacrum_cluster3			left_lat_femoral_epicondyle			left_anterior_thigh15			left_anterior_thigh25			left_anterior_thigh50			left_lateral_thigh25			left_lateral_thigh50			left_thigh_cluster1			left_thigh_cluster2			left_thigh_cluster3			left_fibular_head			left_tibial_tuberosity			left_anterior_shank30			left_lateral_malleolus			left_shank_cluster1			left_shank_cluster2			left_shank_cluster3			left_heel			left_metatarsal2			left_foot_cluster1			left_foot_cluster2			left_foot_cluster3			right_lat_femoral_epicondyle			right_anterior_thigh15			right_anterior_thigh25			right_anterior_thigh50			right_lateral_thigh25			right_lateral_thigh50			right_thigh_cluster1			right_thigh_cluster2			right_thigh_cluster3			right_fibular_head			right_tibial_tuberosity			right_lateral_distal_shank			right_anterior_shank30			right_lateral_malleolus			right_shank_cluster1			right_shank_cluster2			right_shank_cluster3			right_heel			right_metatarsal2			right_foot_cluster1			
		X1	Y1	Z1	X2	Y2	Z2	X3	Y3	Z3	X4	Y4	Z4	X5	Y5	Z5	X6	Y6	Z6	X7	Y7	Z7	X8	Y8	Z8	X9	Y9	Z9	X10	Y10	Z10	X11	Y11	Z11	X12	Y12	Z12	X13	Y13	Z13	X14	Y14	Z14	X15	Y15	Z15	X16	Y16	Z16	X17	Y17	Z17	X18	Y18	Z18	X19	Y19	Z19	X20	Y20	Z20	X21	Y21	Z21	X22	Y22	Z22	X23	Y23	Z23	X24	Y24	Z24	X25	Y25	Z25	X26	Y26	Z26	X27	Y27	Z27	X28	Y28	Z28	X29	Y29	Z29	X30	Y30	Z30	X31	Y31	Z31	X32	Y32	Z32	X33	Y33	Z33	X34	Y34	Z34	X35	Y35	Z35	X36	Y36	Z36	X37	Y37	Z37	X38	Y38	Z38	X39	Y39	Z39	X40	Y40	Z40	X41	Y41	Z41	X42	Y42	Z42	X43	Y43	Z43	X44	Y44	Z44	X45	Y45	Z45	X46	Y46	Z46	X47	Y47	Z47	X48	Y48	Z48	X49	Y49	Z49	X50	Y50	Z50	X51	Y51	Z51	X52	Y52	Z52	X53	Y53	Z53	
306	3.05	3539.8484	106.49722	-129.04309	3538.3757	108.01544	-165.80399	3092.3311	1422.0797	-59.417835	3082.0593	1393.0455	-49.713818	3082.2004	1395.1639	-87.850784	3125.948	1050.0745	58.011181	3120.3706	1043.5626	-190.75656	3292.1963	1066.9585	10.085491	3289.4485	1067.8746	-108.65065	3296.8591	1124.5239	-57.645733	3303.7539	1099.4684	-69.496445	3308.3181	1094.9856	-30.328274	3028.4089	547.9436	71.789185	2972.1763	653.32269	13.757623	2986.739	736.76459	35.457489	3035.6489	862.81775	58.399239	3083.5469	688.91357	99.561707	3129.6858	829.91791	129.74123	3114.9241	784.11127	135.472	3109.6653	755.16467	130.1667	3077.562	774.47528	133.74417	3005.4954	471.17871	73.867401	2963.6035	468.6225	9.4754353	2977.488	215.00352	0.16215748	3024.1951	100.94949	36.05582	2966.0288	412.49597	-18.817657	2958.8191	385.28217	-11.813889	2980.5984	385.37787	-43.783234	3098.2258	65.682007	3.8671207	2880.6338	76.820549	-5.9439249	2942.6631	122.02576	1.7299957	2917.7656	106.78669	11.264216	2914.7639	112.57358	-26.716898	3274.9436	510.28131	-210.33792	3161.1262	566.35645	-160.78795	3127.2483	647.30646	-153.96149	3106.0334	780.58832	-157.37267	3233.0037	662.06018	-229.31186	3205.2495	805.27106	-248.92204	3223.7959	758.51239	-255.10883	3216.6426	730.10535	-252.5092	3255.0081	735.20264	-247.45506	3323.3718	463.02188	-214.00763	3284.3345	416.06189	-174.69345	3525.2183	284.82617	-191.76723	3479.301	256.18268	-151.60788	3596.6658	209.58896	-177.22365	3336.0266	371.22125	-115.32153	3359.3271	356.21207	-107.67142	3344.2764	341.50562	-139.22044	3660.7603	257.59576	-135.8877	3554.4771	65.217224	-135.09996	3537.0171	135.14413	-139.03152
307	3.06	3523.8462	111.29976	-130.03596	3523.5688	112.41443	-167.6516	3078.051	1423.6991	-58.862576	3067.9521	1394.6749	-49.424976	3068.3464	1396.8735	-87.551056	3110.7117	1052.1992	59.165058	3105.6426	1044.8267	-189.66237	3277.1282	1068.1936	10.971884	3274.7542	1068.3253	-107.7739	3281.9458	1125.303	-57.046291	3288.9326	1100.1615	-68.643028	3293.3484	1096.041	-29.499992	3017.0703	548.59412	72.899704	2960.9358	653.83844	14.06773	2974.1448	737.62439	35.624088	3021.5796	864.14673	58.710056	3069.9722	690.54645	100.79585	3115.3184	831.79175	130.94508	3101.5288	785.75623	135.83202	3095.5132	756.80743	131.30585	3063.7463	776.56677	134.44934	2997.7119	470.36795	75.058105	2955.1948	468.23569	10.279191	2974.2034	214.10474	1.264073	3023.7581	100.77202	36.091122	2958.1667	411.3967	-17.433985	2951.8513	384.04202	-10.564879	2973.4065	384.49667	-42.825855	3098.2747	65.58242	3.8241875	2880.3401	75.769333	-5.8687439	2942.2292	121.5298	1.5215206	2917.2244	105.9683	11.381916	2914.4824	111.25211	-26.751919	3246.3083	507.61603	-211.5965	3134.3567	566.54486	-163.95482	3103.0916	648.50171	-156.07751	3087.3665	782.52667	-157.0891	3208.5549	660.05322	-229.98058	3186.135	804.70856	-248.15446	3203.0366	757.28497	-254.57045	3195.427	729.40979	-252.31046	3233.4207	733.0271	-247.07869	3294.2637	461.30762	-215.64206	3256.2327	414.09326	-176.27841	3500.4333	289.40881	-192.24956	3455.4385	259.6152	-152.758	3573.4973	217.82593	-178.03969	3308.0608	369.4014	-117.02284	3331.9412	354.96808	-109.27738	3318.9573	340.33701	-142.11259	3631.7942	271.13882	-136.19034	3544.2886	69.701782	-136.23058	3519.1267	138.8455	-140.45093
308	3.07	3506.8274	115.55279	-129.834	3506.5352	116.10658	-167.54868	3063.8542	1425.1918	-58.014965	3053.7615	1396.5085	-49.097744	3054.3494	1398.532	-87.250473	3095.7336	1053.9927	60.038494	3092.3433	1045.7281	-189.30713	3262.2686	1069.5625	11.637088	3260.5593	1068.8103	-107.06918	3267.2859	1126.2467	-56.709087	3274.4402	1101.057	-68.074821	3278.6411	1097.1992	-28.853321	3008.4749	548.34521	74.114166	2950.698	653.40295	15.371278	2962.3652	737.88873	36.009472	3007.9626	864.7392	59.228455	3057.8835	691.90643	102.03011	3101.6953	833.37952	131.89653	3088.7393	787.8067	137.25409	3082.7837	758.77527	132.67632	3050.8713	778.03247	135.17926	2991.4907	469.66763	76.555405	2947.4106	466.78711	12.257039	2971.3064	212.84445	2.4172199	3023.4917	100.61311	36.116638	2951.6938	409.90512	-15.672723	2945.1267	382.42056	-8.6450787	2966.1978	383.37701	-41.181511	3098.1677	65.707138	3.5627282	2880.02	74.820778	-5.6140323	2941.7605	121.17766	1.6061811	2917.0381	105.74718	11.238847	2913.9407	110.59541	-26.33251	3217.5471	505.46951	-212.77841	3107.917	567.51837	-166.04277	3079.4148	650.41785	-158.01988	3068.7961	784.80212	-157.04315	3184.979	658.99719	-231.51572	3167.6377	804.26471	-247.62099	3182.7341	756.28552	-254.69574	3174.0051	728.45935	-252.93445	3212.2751	731.07806	-246.87697	3264.9436	460.14197	-217.50575	3227.2725	413.1694	-177.58272	3474.5332	294.04987	-192.67075	3430.5784	263.30054	-153.04027	3549.0864	224.84631	-177.974	3280.2683	367.51566	-119.49187	3304.2141	354.85416	-111.67578	3293.5559	339.42636	-144.13657	3602.7683	282.41708	-136.54144	3530.5032	75.008965	-135.92363	3499.5168	142.71144	-139.68092
309	3.08	3487.0767	120.1564	-128.10519	3485.9065	120.75885	-165.75572	3049.48	1426.6713	-57.618904	3039.4976	1398.1454	-48.998646	3040.2842	1400.1899	-87.066299	3080.6997	1055.8774	60.640015	3078.9478	1046.8218	-189.15353	3247.6074	1071.1184	12.302138	3246.458	1069.2	-106.34408	3252.8833	1127.2988	-56.393444	3260.2471	1102.0935	-67.503242	3264.1143	1098.5013	-28.227886	3001.9402	547.43121	75.372345	2941.1929	652.03101	17.591124	2951.126	737.33643	36.757362	2994.6619	864.53613	59.97398	3047.4707	692.89307	102.90961	3088.3872	834.94965	132.93443	3077.1309	789.4024	137.47984	3071.0063	759.99139	133.62399	3038.512	779.21948	136.02087	2986.1201	468.59451	78.105217	2940.5083	465.01733	15.066448	2968.6667	211.63219	3.5692732	3023.4375	100.34045	36.194386	2943.6299	408.3717	-13.143927	2938.7246	380.77234	-6.1398997	2959.198	382.01865	-39.248215	3098.0454	65.780357	3.4252625	2879.7227	74.204323	-5.5212975	2941.4944	120.75948	1.5563482	2916.7634	105.46898	11.287302	2913.7144	110.2732	-26.506216	3188.6897	504.37021	-214.12105	3081.6069	569.36865	-167.43782	3056.3652	652.78314	-159.55833	3050.1851	787.4436	-157.20819	3161.1348	657.9248	-231.81433	3150.071	803.93854	-247.45059	3163.4233	755.96466	-254.63217	3153.8999	728.60474	-253.59116	3191.8079	729.66461	-246.80807	3235.2898	459.50482	-219.21762	3198.1121	412.44006	-178.53261	3447.8723	298.48639	-192.93259	3404.8818	267.4563	-152.91377	3523.8865	230.74767	-177.93123	3251.4153	367.6203	-120.62322	3276.2283	354.99002	-112.12733	3264.7559	340.38547	-145.37288	3575.9993	291.15659	-137.36296	3512.5544	80.742699	-134.67142	3478.5818	146.57614	-139.45689
